<?xml version="1.0" encoding="utf-8"?>
<!-- Svg Vector Icons : http://www.onlinewebfonts.com/icon -->
<!DOCTYPE svg PUBLIC "-//W3C//DTD SVG 1.1//EN" "http://www.w3.org/Graphics/SVG/1.1/DTD/svg11.dtd">
<svg version="1.1" xmlns="http://www.w3.org/2000/svg" xmlns:xlink="http://www.w3.org/1999/xlink" x="0px" y="0px" viewBox="0 0 1000 1000" enable-background="new 0 0 1000 1000" xml:space="preserve">
<metadata> Svg Vector Icons : http://www.onlinewebfonts.com/icon </metadata>
<g><path d="M270,494.3c-10.6,10.6-10.6,27.7,0,38.3l210.6,210.6c0.1,0.1,0.2,0.1,0.2,0.2c4.8,5,11.6,8.2,19.1,8.2c7.5,0,14.3-3.1,19.1-8.2c0.1-0.1,0.2-0.2,0.3-0.2L730,532.6c10.6-10.6,10.6-27.7,0-38.3c-10.6-10.6-27.7-10.6-38.3,0L526.5,659.5v-623c0-14.6-11.9-26.5-26.5-26.5c-14.6,0-26.5,11.9-26.5,26.5v623L308.3,494.3C297.7,483.7,280.6,483.7,270,494.3z M791.4,142.4H658.9v53h132.4c58.5,0,105.9,47.4,105.9,105.9v529.7c0,58.5-47.4,105.9-105.9,105.9H208.6c-58.5,0-105.9-47.4-105.9-105.9V301.4c0-58.5,47.4-105.9,105.9-105.9h132.4v-53H208.6c-87.8,0-158.9,71.2-158.9,158.9v529.7c0,87.8,71.2,158.9,158.9,158.9h582.7c87.8,0,158.9-71.2,158.9-158.9V301.4C950.3,213.6,879.1,142.4,791.4,142.4z"/></g>
</svg>